<svg width="75" height="18" viewBox="0 0 75 18" fill="none" xmlns="http://www.w3.org/2000/svg">
<path d="M13.069 1.04V4.376H4.645V7.688H12.205V10.784H4.645V17H0.421V1.04H13.069ZM19.1254 17H14.9974V0.199999H19.1254V17ZM25.2085 17.312C22.8085 17.312 21.2245 15.944 21.2245 13.832C21.2245 11.912 22.0165 10.64 25.3285 10.088L28.0405 9.608C29.1445 9.416 29.4325 9.128 29.4325 8.504C29.4325 7.784 29.0005 7.352 27.6325 7.352C26.1925 7.352 25.4965 7.928 25.4725 8.984H21.4645C21.5845 6.44 23.7925 4.616 27.5845 4.616C31.3765 4.616 33.2485 6.176 33.2485 8.912V13.688C33.2485 14.96 33.3205 16.016 33.4645 17H29.9125C29.7925 16.304 29.7205 15.488 29.7205 14.504C29.1205 16.256 27.6325 17.312 25.2085 17.312ZM26.7685 14.624C28.3285 14.624 29.4325 13.52 29.4325 11.36V10.904C28.8565 11.336 28.3045 11.48 27.5605 11.672L26.8645 11.84C25.7125 12.128 25.2805 12.536 25.2805 13.352C25.2805 14.192 25.9285 14.624 26.7685 14.624ZM35.3624 12.296V5H39.4904V11.576C39.4904 13.184 40.1384 14.048 41.6024 14.048C43.2104 14.048 44.1704 12.944 44.1704 10.64V5H48.2984V17H44.1704V14.816C43.4024 16.376 42.0344 17.384 39.9224 17.384C36.7784 17.384 35.3624 15.44 35.3624 12.296ZM59.1173 4.616C62.2613 4.616 63.6293 6.56 63.6293 9.704V17H59.5013V10.4C59.5013 8.816 58.8533 7.952 57.4133 7.952C55.7573 7.952 54.7973 9.008 54.7973 11.36V17H50.6693V5H54.7973V7.208C55.5893 5.648 56.9813 4.616 59.1173 4.616ZM73.8745 17H71.6905C68.0185 17 66.8665 15.368 66.8665 12.272V8.096H64.7545V6.176L67.2025 5.096L68.9065 2.096H70.9945V5H74.2585V8.096H70.9945V13.736H73.8745V17Z" fill="white"/>
</svg>
