<?xml version="1.0" standalone="no"?>
<!DOCTYPE svg PUBLIC "-//W3C//DTD SVG 20010904//EN"
 "http://www.w3.org/TR/2001/REC-SVG-20010904/DTD/svg10.dtd">
<svg version="1.0" xmlns="http://www.w3.org/2000/svg"
 width="326.000000pt" height="203.000000pt" viewBox="0 0 326.000000 203.000000"
 preserveAspectRatio="xMidYMid meet">

<g transform="translate(0.000000,203.000000) scale(0.100000,-0.100000)"
fill="#000000" stroke="none">
<path d="M155 1932 c-3 -3 -5 -419 -5 -924 l0 -918 1030 0 1030 0 0 255 c0
163 -4 255 -10 255 -6 0 -10 -88 -10 -245 l0 -245 -1010 0 -1010 0 0 900 0
900 1010 0 1010 0 0 -355 c0 -230 4 -355 10 -355 6 0 10 128 10 365 0 285 -3
365 -12 365 -7 0 -469 1 -1025 3 -557 2 -1015 2 -1018 -1z"/>
<path d="M1542 1468 c-103 -18 -159 -63 -492 -397 -173 -174 -326 -328 -339
-343 l-24 -28 238 0 239 0 209 215 c115 118 212 215 216 215 4 0 72 -66 152
-146 79 -80 171 -166 204 -191 64 -49 160 -97 179 -89 6 2 2 5 -9 6 -18 1 -18
2 3 11 13 5 20 14 17 20 -10 16 25 49 51 49 17 0 22 4 18 15 -4 9 0 15 10 15
9 0 16 7 16 16 0 10 6 14 14 11 8 -3 27 7 43 23 15 16 35 30 43 30 12 0 13 2
1 9 -10 6 -5 12 20 20 19 6 51 26 71 43 21 18 54 47 74 63 20 17 42 36 49 43
8 6 18 12 24 12 21 0 61 24 61 36 0 16 72 64 96 64 14 0 15 -2 3 -17 -13 -16
-12 -17 3 -5 10 8 16 17 15 20 -1 4 3 7 8 7 5 0 9 -4 7 -8 -1 -5 2 -6 8 -2 8
5 8 11 1 19 -8 9 -4 19 12 37 12 13 21 27 20 30 -1 4 6 14 16 23 18 16 19 15
16 -15 l-3 -33 54 59 c35 38 53 64 49 74 -5 13 -4 14 6 4 15 -15 33 -17 24 -3
-3 5 2 10 12 11 10 0 13 3 6 6 -7 2 -13 9 -13 14 0 6 9 5 21 -2 15 -8 19 -8
15 0 -4 6 -2 11 4 11 6 0 8 5 5 11 -4 6 0 9 10 7 10 -2 19 4 20 13 4 24 -39
29 -254 29 l-185 0 -216 -215 c-118 -118 -220 -215 -225 -215 -6 0 -81 69
-167 154 -233 230 -331 286 -456 264z m1332 -163 c-14 -19 -28 -35 -31 -35 -6
0 16 37 33 54 27 27 26 17 -2 -19z m-124 -79 c0 -2 -8 -10 -17 -17 -16 -13
-17 -12 -4 4 13 16 21 21 21 13z"/>
<path d="M2646 1134 c-5 -14 -4 -15 9 -4 17 14 19 20 6 20 -5 0 -12 -7 -15
-16z"/>
<path d="M2563 1053 c0 -9 4 -10 14 -2 7 6 13 12 13 14 0 1 -6 2 -13 2 -8 0
-14 -6 -14 -14z"/>
</g>
</svg>
